<?xml version="1.0" encoding="utf-8"?>
<!-- Generator: Adobe Illustrator 19.2.0, SVG Export Plug-In . SVG Version: 6.00 Build 0)  -->
<svg version="1.1" id="Layer_1" xmlns="http://www.w3.org/2000/svg" xmlns:xlink="http://www.w3.org/1999/xlink" x="0px" y="0px"
	 viewBox="0 0 219 77" style="enable-background:new 0 0 219 77;" xml:space="preserve">
<style type="text/css">
	.st0{fill:#FF6060;}
</style>
<path class="st0" d="M24.5,39.6L13.3,51.1v16.1H4.4V5h8.8v34.8L46.8,5h10.1L30.6,33l28.2,34.3H48.5L24.5,39.6z"/>
<path class="st0" d="M123.2,62.3l3.5-6.7c4.1,2.8,10.3,4.8,16.4,4.8c7.9,0,11.1-2.4,11.1-6.5c0-10.6-29.7-1.5-29.7-20.2
	c0-8.5,7.6-14.1,19.5-14.1c6.1,0,13.1,1.7,17.1,4.3l-3.7,6.7c-4.2-2.8-8.8-3.7-13.4-3.7c-7.4,0-11.1,2.8-11.1,6.5
	c0,11.1,29.7,2,29.7,20.4c0,8.5-7.7,13.9-20.3,13.9C134.8,67.8,127.1,65.4,123.2,62.3z"/>
<path class="st0" d="M214.8,38.7v28.5h-8.1V61c-2.8,4.3-8.1,6.7-15.5,6.7c-10.7,0-17.3-5.7-17.3-13.9c0-7.6,4.8-13.7,18.8-13.7h13.4
	v-1.7c0-7.2-4.2-11.3-12.5-11.3c-5.5,0-11.2,2-14.9,5l-3.5-6.5c4.8-3.9,11.8-6.1,19.3-6.1C207.6,19.6,214.8,25.9,214.8,38.7z
	 M206.3,52.8v-6.7h-13.1c-8.5,0-10.9,3.3-10.9,7.2c0,4.6,3.9,7.6,10.3,7.6C199.1,61.1,204.3,58.4,206.3,52.8z"/>
<path class="st0" d="M96,54.8v12.6l5.3-3.1V51.7L96,54.8z"/>
<path class="st0" d="M110.7,39.5L88.8,26.7l-12.2-7l-12,20.9l0.2,19.6L86.6,73l2.2-1.3V53.2L98.6,36l9.9,5.7v18.5l2.2-1.3V39.5z"/>
</svg>
